<?xml version="1.0" encoding="UTF-8"?><svg xmlns="http://www.w3.org/2000/svg" width="32" height="32" viewBox="0 0 32 32" fill="none"><rect width="32" height="32" rx="16" fill="#000"/><g clip-path="url(#_1847358832__a)"><path d="M23.491 13.496a3.122 3.122 0 0 1-3.123-3.141 3.097 3.097 0 0 1-3.36.268 3.122 3.122 0 0 1-1.388-3.984 9.365 9.365 0 1 0 9.299 6.5 3.09 3.09 0 0 1-1.428.357Z" stroke="#fff" stroke-width="1.5" stroke-linecap="round" stroke-linejoin="round"/><path d="M11.917 20.366a.312.312 0 1 1 0-.625M11.917 20.366a.312.312 0 1 0 0-.625M13.313 13.625a.312.312 0 1 1 0-.625M13.313 13.625a.312.312 0 1 0 0-.625M16.313 18.625a.312.312 0 1 1 0-.625M16.313 18.625a.313.313 0 0 0 0-.625" stroke="#fff"/><circle cx="21" cy="18" r="1" fill="#fff"/></g><defs><clipPath id="_1847358832__a"><path fill="#fff" transform="translate(6 6)" d="M0 0h20v20H0z"/></clipPath></defs></svg>