<?xml version="1.0" encoding="UTF-8"?><!DOCTYPE svg PUBLIC "-//W3C//DTD SVG 1.0//EN" "http://www.w3.org/TR/2001/REC-SVG-20010904/DTD/svg10.dtd" []><svg xmlns="http://www.w3.org/2000/svg" xmlns:xlink="http://www.w3.org/1999/xlink" clip-rule="evenodd" fill-rule="evenodd" stroke-linejoin="round" stroke-miterlimit="2" viewBox="0 0 1429 527"><g><g><g><path d="M473.211,412.236L473.211,403.501L470.099,403.501L470.099,401.724L478.438,401.724L478.438,403.501L475.341,403.501L475.341,412.236L473.211,412.236ZM183.471,401.805C183.471,392.214 185.995,389.185 197.101,389.185L197.101,371.517C173.795,371.517 162.184,381.399 161.938,401.161L161.926,401.161L161.865,417.053L147.146,417.053L147.146,433.316L161.802,433.316L161.722,454.306C161.722,463.897 159.198,466.926 148.092,466.926L148.092,484.595C170.55,484.595 182.436,475.419 183.471,457.069L183.471,433.316L198.251,433.316L198.251,417.053L183.471,417.053L183.471,401.805ZM219.421,360.442C224.462,360.442 229.027,362.486 232.331,365.789C235.635,369.093 237.678,373.658 237.678,378.699C237.678,383.74 235.635,388.304 232.331,391.608C229.027,394.912 224.462,396.956 219.421,396.956C214.38,396.956 209.816,394.912 206.512,391.608C203.208,388.304 201.165,383.74 201.165,378.699C201.165,373.658 203.208,369.093 206.512,365.789C209.816,362.486 214.38,360.442 219.421,360.442ZM228.008,370.112C225.811,367.915 222.775,366.556 219.421,366.556C216.067,366.556 213.032,367.915 210.834,370.112C208.638,372.309 207.279,375.346 207.279,378.699C207.279,382.053 208.638,385.088 210.834,387.286C213.032,389.483 216.067,390.842 219.421,390.842C222.775,390.842 225.811,389.483 228.008,387.286C230.205,385.088 231.564,382.053 231.564,378.699C231.564,375.346 230.205,372.309 228.008,370.112ZM453.894,454.642C453.053,463.561 446.322,468.441 437.74,468.441C429.159,468.441 421.586,459.691 421.586,441.686C421.586,423.681 429.159,417.791 438.413,417.791C446.658,417.791 452.885,422.839 454.063,431.421L476.106,431.421C474.76,411.902 460.12,399.618 438.582,399.618C415.36,399.618 399.88,412.575 399.88,442.191C399.88,471.806 415.36,486.782 437.908,486.782C457.933,486.782 473.582,473.825 475.938,454.642L453.894,454.642ZM337.622,435.123C338.463,423.681 345.699,416.95 354.449,416.95C363.031,416.95 371.108,422.839 371.444,435.123L337.622,435.123ZM393.992,448.921C393.992,416.109 380.531,399.618 355.122,399.618C329.713,399.618 315.073,416.109 315.073,441.686C315.073,471.638 328.872,486.782 356.468,486.782C374.137,486.782 387.767,477.191 392.814,460.195L370.266,460.195C368.752,465.916 362.526,469.45 355.459,469.45C344.689,469.45 337.622,461.374 336.949,448.921L393.992,448.921ZM277.128,417.286L268.911,417.286L268.911,401.805L277.128,401.805L277.128,379.425L298.667,379.425L298.667,401.805L311.861,401.805L311.861,417.286L298.667,417.286L298.667,451.277C298.667,461.71 302.369,467.767 311.287,467.767C311.481,467.767 311.672,467.764 311.861,467.758L311.861,486.772C311.56,486.777 311.257,486.782 310.95,486.782C286.72,486.782 277.128,471.301 277.128,453.464L277.128,417.286ZM241.27,379.425L241.27,473.825C241.27,479.748 246.191,484.595 252.205,484.595L263.142,484.595L263.145,379.425L241.27,379.425ZM230.359,401.805L208.483,401.805L208.513,473.825C208.513,479.748 213.428,484.595 219.436,484.595L230.359,484.595L230.359,401.805ZM479.787,412.236L479.787,401.724L482.975,401.724L484.859,408.893L486.721,401.724L489.917,401.724L489.917,412.236L487.95,412.236L487.943,403.96L485.87,412.236L483.824,412.236L481.761,403.96L481.754,412.236L479.787,412.236Z" fill="#e3070f" fill-rule="nonzero" transform="matrix(1,0,0,1,-613.109167,-1479.615417) matrix(4.166667,0,0,4.166667,0,0) matrix(1,0,0,1,0,-5.3342)"/></g></g></g></svg>