<?xml version="1.0" encoding="UTF-8"?><svg xmlns="http://www.w3.org/2000/svg" width="80" height="80" fill="none" viewBox="0 0 80 80"><g clip-path="url(#_1772273338__a)"><path fill="#EBECF0" d="M80 40c0 12.709-5.897 24-15.131 31.314C58.057 76.754 49.417 80 40 80c-9.783 0-18.743-3.52-25.691-9.326C5.577 63.314 0 52.343 0 40 0 17.92 17.92 0 40 0s40 17.92 40 40Z"/><path fill="#2F4050" fill-opacity=".25" d="M10.54 67.06C16.417 58.088 27.41 52.049 40 52.049c12.589 0 23.58 6.037 29.457 15.009a40.117 40.117 0 0 1-4.588 4.257C58.057 76.754 49.417 80 40 80c-9.783 0-18.743-3.52-25.691-9.326a40.727 40.727 0 0 1-3.769-3.613ZM40 47.361c8.837 0 16-7.163 16-16s-7.163-16-16-16-16 7.163-16 16 7.163 16 16 16Z"/></g><defs><clipPath id="_1772273338__a"><path fill="#fff" d="M0 0h80v80H0z"/></clipPath></defs></svg>